<?xml version="1.0" standalone="no"?>
<!DOCTYPE svg PUBLIC "-//W3C//DTD SVG 20010904//EN"
 "http://www.w3.org/TR/2001/REC-SVG-20010904/DTD/svg10.dtd">
<svg version="1.0" xmlns="http://www.w3.org/2000/svg"
 width="97.000000pt" height="108.000000pt" viewBox="0 0 97.000000 108.000000"
 preserveAspectRatio="xMidYMid meet">

<g transform="translate(0.000000,108.000000) scale(0.100000,-0.100000)"
fill="#000000" stroke="none">
<path d="M448 884 c-16 -8 -28 -19 -28 -24 0 -6 -10 -6 -26 0 -14 6 -33 10
-42 10 -13 0 -13 -2 4 -14 28 -21 10 -30 -21 -10 -18 12 -29 14 -37 6 -7 -7
-2 -15 18 -26 l29 -16 -47 6 c-32 4 -48 3 -48 -5 0 -9 13 -13 36 -10 7 1 24
-22 24 -33 0 -4 -16 0 -35 8 -34 14 -55 12 -55 -5 0 -4 17 -13 38 -19 20 -7
50 -22 66 -35 l30 -24 -22 -19 c-32 -27 -27 -37 15 -31 45 8 139 69 148 97 7
23 43 35 74 25 19 -6 21 -2 21 35 0 22 -7 54 -15 70 -14 26 -21 30 -58 30 -23
-1 -54 -8 -69 -16z"/>
<path d="M180 724 c-16 -14 -30 -31 -30 -37 0 -6 7 -2 16 9 14 18 15 18 4 -3
-6 -13 -17 -23 -25 -23 -16 0 -20 -6 -28 -41 -7 -26 -6 -26 37 -22 29 4 55 0
77 -11 37 -19 42 -15 59 46 6 20 16 39 23 41 18 7 -10 31 -60 50 -41 16 -43
16 -73 -9z"/>
<path d="M128 573 c-23 -6 -26 -34 -13 -111 5 -27 10 -32 23 -27 9 4 25 8 36
11 22 4 34 14 18 14 -7 0 -12 5 -12 10 0 12 48 3 68 -13 14 -11 72 -16 72 -6
0 15 -27 28 -38 19 -7 -6 -10 -7 -7 -4 2 4 -2 16 -10 28 -8 11 -15 32 -15 47
0 15 -7 29 -16 33 -17 7 -79 6 -106 -1z m45 -104 c3 -12 3 -18 0 -15 -3 3 -15
1 -27 -5 -20 -10 -20 -10 -2 5 11 9 16 16 12 16 -4 0 -4 5 -1 10 9 14 12 13
18 -11z"/>
<path d="M676 434 c-3 -9 -6 -24 -6 -34 0 -10 -9 -25 -19 -32 -26 -18 -15 -33
42 -58 41 -18 49 -19 62 -7 13 13 13 16 -1 21 -8 3 -12 11 -9 17 4 5 -1 19
-12 31 -20 22 -20 27 -2 38 8 6 2 13 -19 24 -27 14 -31 14 -36 0z"/>
<path d="M142 399 c-14 -22 -5 -24 21 -5 14 11 15 15 4 19 -7 3 -19 -4 -25
-14z"/>
<path d="M558 385 c-20 -14 -41 -25 -47 -25 -5 0 -27 -20 -48 -45 -28 -34 -44
-45 -65 -45 -26 0 -28 -3 -28 -39 0 -22 4 -51 10 -65 8 -23 15 -26 54 -26 46
0 111 22 99 33 -10 11 16 8 39 -4 13 -7 24 -7 30 -1 7 7 3 12 -10 16 -11 4
-23 13 -26 21 -3 9 0 12 8 9 9 -3 12 6 12 30 -1 19 -4 32 -8 30 -4 -3 -12 5
-18 17 -10 17 -9 20 1 14 8 -6 10 -4 5 4 -5 7 -15 10 -24 6 -14 -5 -14 -3 1
13 9 10 17 24 17 31 0 7 4 9 10 6 6 -4 7 1 3 11 -3 10 -2 15 3 12 5 -3 15 0
22 8 20 22 0 16 -40 -11z"/>
<path d="M160 365 c-6 -8 -10 -19 -8 -26 2 -6 9 0 16 15 13 29 10 33 -8 11z"/>
<path d="M567 343 c-11 -10 -8 -20 6 -20 8 0 14 6 14 14 0 14 -10 17 -20 6z"/>
<path d="M756 342 c-3 -5 1 -9 9 -9 8 0 12 4 9 9 -3 4 -7 8 -9 8 -2 0 -6 -4
-9 -8z"/>
<path d="M171 316 c-19 -23 4 -28 24 -6 15 17 16 20 3 20 -9 0 -21 -6 -27 -14z"/>
<path d="M206 291 c-12 -14 -14 -21 -6 -26 16 -10 41 17 31 33 -6 9 -12 8 -25
-7z"/>
<path d="M265 269 l-36 -32 23 -24 c12 -13 39 -32 58 -40 19 -9 38 -18 41 -19
3 -2 3 25 1 59 -3 41 -9 66 -20 75 -22 17 -27 16 -67 -19z"/>
<path d="M597 216 c-7 -18 42 -41 57 -26 7 7 5 10 -6 10 -9 0 -23 7 -31 15
-12 12 -16 12 -20 1z"/>
</g>
</svg>
